<svg width="100" height="100" viewBox="0 0 100 100" fill="none" xmlns="http://www.w3.org/2000/svg">
<g clip-path="url(#clip0_264_26)">
<rect width="100" height="100" rx="20" fill="white"/>
<path d="M83.6359 16.7922C87.0531 20.3078 87.5 25.8937 87.5 39.5625C87.5 53.2313 87.0531 58.8172 83.6359 62.3328C80.2188 65.8469 76.6594 66.125 50 66.125C23.3406 66.125 19.7812 65.8469 16.3641 62.3328C12.9469 58.8172 12.5 53.2313 12.5 39.5625C12.5 25.8937 12.9469 20.3078 16.3641 16.7922C19.7812 13.2766 23.3406 13 50 13C76.6594 13 80.2188 13.2781 83.6359 16.7922ZM43.6719 51.1516L62.65 40.1547L43.6719 29.3297V51.1516Z" fill="#FF0000"/>
<path d="M28.2642 73.4545H32.0568L36.0625 83.2273H36.233L40.2386 73.4545H44.0312V88H41.0483V78.5327H40.9276L37.1634 87.929H35.1321L31.3679 78.4972H31.2472V88H28.2642V73.4545ZM46.565 88V73.4545H52.3036C53.4068 73.4545 54.3467 73.6652 55.1232 74.0866C55.8997 74.5033 56.4916 75.0833 56.8988 75.8267C57.3107 76.5653 57.5167 77.4176 57.5167 78.3835C57.5167 79.3494 57.3084 80.2017 56.8917 80.9403C56.475 81.679 55.8713 82.2543 55.0806 82.6662C54.2946 83.0781 53.3429 83.2841 52.2255 83.2841H48.5678V80.8196H51.7283C52.3202 80.8196 52.8079 80.7178 53.1914 80.5142C53.5797 80.3059 53.8685 80.0194 54.0579 79.6548C54.252 79.2855 54.3491 78.8617 54.3491 78.3835C54.3491 77.9006 54.252 77.4792 54.0579 77.1193C53.8685 76.7547 53.5797 76.473 53.1914 76.2741C52.8031 76.0705 52.3107 75.9688 51.7141 75.9688H49.6403V88H46.565ZM64.8054 88.1989C63.7448 88.1989 62.8002 88.0166 61.9716 87.652C61.1477 87.2827 60.4967 86.776 60.0185 86.1321C59.545 85.4834 59.3011 84.7353 59.2869 83.8878H62.3835C62.4025 84.2429 62.5185 84.5554 62.7315 84.8253C62.9493 85.0904 63.2382 85.2964 63.598 85.4432C63.9579 85.59 64.3627 85.6634 64.8125 85.6634C65.2812 85.6634 65.6955 85.5805 66.0554 85.4148C66.4152 85.2491 66.697 85.0194 66.9006 84.7259C67.1042 84.4323 67.206 84.0937 67.206 83.7102C67.206 83.322 67.0971 82.9787 66.8793 82.6804C66.6662 82.3774 66.3584 82.1406 65.956 81.9702C65.5582 81.7997 65.0848 81.7145 64.5355 81.7145H63.179V79.456H64.5355C64.9995 79.456 65.4091 79.3755 65.7642 79.2145C66.1241 79.0535 66.4034 78.831 66.6023 78.5469C66.8011 78.258 66.9006 77.9219 66.9006 77.5384C66.9006 77.1738 66.813 76.8542 66.6378 76.5795C66.4673 76.3002 66.2259 76.0824 65.9134 75.9261C65.6056 75.7699 65.2457 75.6918 64.8338 75.6918C64.4171 75.6918 64.036 75.7675 63.6903 75.919C63.3447 76.0658 63.0677 76.2765 62.8594 76.5511C62.651 76.8258 62.5398 77.1477 62.5256 77.517H59.5781C59.5923 76.679 59.8314 75.9403 60.2955 75.3011C60.7595 74.6619 61.3845 74.1624 62.1705 73.8026C62.9612 73.438 63.8537 73.2557 64.848 73.2557C65.8518 73.2557 66.7301 73.438 67.483 73.8026C68.2358 74.1671 68.8205 74.6596 69.2372 75.2798C69.6586 75.8954 69.867 76.5866 69.8622 77.3537C69.867 78.1681 69.6136 78.8475 69.1023 79.392C68.5956 79.9366 67.9351 80.2822 67.1207 80.429V80.5426C68.1908 80.6799 69.0052 81.0516 69.5639 81.6577C70.1274 82.259 70.4067 83.0118 70.402 83.9162C70.4067 84.7448 70.1676 85.4811 69.6847 86.125C69.2064 86.7689 68.5459 87.2756 67.7031 87.6449C66.8603 88.0142 65.8944 88.1989 64.8054 88.1989Z" fill="black"/>
</g>
<defs>
<clipPath id="clip0_264_26">
<rect width="100" height="100" rx="20" fill="white"/>
</clipPath>
</defs>
</svg>
